<svg width="24" height="24" viewBox="0 0 24 24" fill="none" xmlns="http://www.w3.org/2000/svg" data-reactroot="">
<path fill="#85D0CC" d="M17 21H7C6.47 21 5.96 20.79 5.59 20.41C5.22 20.03 5 19.53 5 19V5C5 4.47 5.21 3.96 5.59 3.59C5.97 3.22 6.47 3 7 3H12.59C12.86 3 13.11 3.10999 13.3 3.28999L18.71 8.7C18.9 8.89 19 9.14 19 9.41V19C19 19.53 18.79 20.04 18.41 20.41C18.03 20.78 17.53 21 17 21Z" undefined="0" transform="translate(2,2)"></path><path fill="#98EED5" d="M17 21H7C6.47 21 5.96 20.79 5.59 20.41C5.22 20.03 5 19.53 5 19V5C5 4.47 5.21 3.96 5.59 3.59C5.97 3.22 6.47 3 7 3H12.59C12.86 3 13.11 3.10999 13.3 3.28999L18.71 8.7C18.9 8.89 19 9.14 19 9.41V19C19 19.53 18.79 20.04 18.41 20.41C18.03 20.78 17.53 21 17 21Z" undefined="1"></path>
<path stroke-linejoin="round" stroke-linecap="round" stroke-width="1" stroke="#265F58" d="M12 10V16M12 16L9 13M12 16L15 13"></path>
</svg>
